<svg xmlns="http://www.w3.org/2000/svg" width="50" height="50" viewBox="0 0 50 50" fill="none">
<path d="M31.8015 4.49097C33.552 4.12628 35.3323 4.03878 36.9576 3.96465L30.2129 10.7093L29.92 11.0022V11.4164C29.92 11.6616 29.9263 12.4913 30.3258 13.6991C30.5129 14.3517 30.7516 15.0692 31.0451 15.7296C31.3346 16.381 31.7106 17.054 32.2003 17.5437C32.6901 18.0334 33.363 18.4094 34.0144 18.6989C34.6818 18.9955 35.4073 19.2361 36.0655 19.4242L36.12 19.4397L36.1758 19.449C36.7005 19.5365 37.1384 19.624 37.4766 19.6916L37.4852 19.6933C37.6474 19.7258 37.7967 19.7556 37.9167 19.7772C38.0098 19.7939 38.1779 19.8239 38.3276 19.8239H38.7418L39.0347 19.5311L45.97 12.5958C45.9692 12.615 45.9683 12.6342 45.9675 12.6534C45.8915 14.3817 45.8106 16.2238 45.4337 18.0328C45.0065 20.0836 44.2132 22.0031 42.6793 23.537C40.6874 25.5289 38.5655 26.336 36.4442 26.4992L36.4378 26.4997C34.4291 26.6671 32.3861 26.334 30.4605 25.8088L29.8875 25.6525L29.4761 26.0809L11.9588 44.3205C11.6653 44.6106 11.2947 44.7318 10.7702 44.9033C10.6994 44.9265 10.6258 44.9506 10.5492 44.9761C10.433 45.0148 10.0934 45.0033 9.76581 44.6757L5.249 40.1589L5.17899 40.0889L5.0966 40.0339C5.02112 39.9836 4.85375 39.7669 4.97002 39.3018L4.99988 39.1824V39.0593C4.99988 38.7314 5.13875 38.4328 5.60347 37.9665L23.8438 20.4485L24.2722 20.0372L24.1159 19.4642C23.5938 17.5496 23.2614 15.5191 23.4222 13.5215C23.7565 11.3937 24.7447 9.23129 26.4281 7.20329C27.8602 5.70374 29.7554 4.91725 31.8015 4.49097ZM37.8766 3.93178C37.8765 3.93188 37.8743 3.93147 37.8704 3.93025C37.8748 3.93107 37.8767 3.93168 37.8766 3.93178Z" stroke="black" stroke-width="2"/>
</svg>